<mxfile host="app.diagrams.net" agent="Mozilla/5.0 (Windows NT 10.0; Win64; x64; rv:133.0) Gecko/20100101 Firefox/133.0" version="26.0.2">
  <diagram id="C5RBs43oDa-KdzZeNtuy" name="Page-1">
    <mxGraphModel dx="882" dy="615" grid="1" gridSize="10" guides="1" tooltips="1" connect="1" arrows="1" fold="1" page="1" pageScale="1" pageWidth="827" pageHeight="1169" math="0" shadow="0">
      <root>
        <mxCell id="WIyWlLk6GJQsqaUBKTNV-0" />
        <mxCell id="WIyWlLk6GJQsqaUBKTNV-1" parent="WIyWlLk6GJQsqaUBKTNV-0" />
        <mxCell id="vnZRfxZpLhFYg0bEfa0_-5" value="" style="edgeStyle=orthogonalEdgeStyle;rounded=0;orthogonalLoop=1;jettySize=auto;html=1;" edge="1" parent="WIyWlLk6GJQsqaUBKTNV-1" source="vnZRfxZpLhFYg0bEfa0_-3" target="vnZRfxZpLhFYg0bEfa0_-4">
          <mxGeometry relative="1" as="geometry" />
        </mxCell>
        <mxCell id="vnZRfxZpLhFYg0bEfa0_-3" value="&lt;div&gt;setting home_location&lt;br&gt;&lt;/div&gt;" style="rounded=1;whiteSpace=wrap;html=1;" vertex="1" parent="WIyWlLk6GJQsqaUBKTNV-1">
          <mxGeometry x="220" y="180" width="140" height="60" as="geometry" />
        </mxCell>
        <mxCell id="vnZRfxZpLhFYg0bEfa0_-9" value="" style="edgeStyle=orthogonalEdgeStyle;rounded=0;orthogonalLoop=1;jettySize=auto;html=1;" edge="1" parent="WIyWlLk6GJQsqaUBKTNV-1" source="vnZRfxZpLhFYg0bEfa0_-4" target="vnZRfxZpLhFYg0bEfa0_-8">
          <mxGeometry relative="1" as="geometry" />
        </mxCell>
        <mxCell id="vnZRfxZpLhFYg0bEfa0_-4" value="read target list array" style="whiteSpace=wrap;html=1;rounded=1;" vertex="1" parent="WIyWlLk6GJQsqaUBKTNV-1">
          <mxGeometry x="220" y="260" width="140" height="60" as="geometry" />
        </mxCell>
        <mxCell id="vnZRfxZpLhFYg0bEfa0_-7" style="edgeStyle=orthogonalEdgeStyle;rounded=0;orthogonalLoop=1;jettySize=auto;html=1;entryX=1;entryY=0.5;entryDx=0;entryDy=0;" edge="1" parent="WIyWlLk6GJQsqaUBKTNV-1" source="vnZRfxZpLhFYg0bEfa0_-6" target="vnZRfxZpLhFYg0bEfa0_-4">
          <mxGeometry relative="1" as="geometry" />
        </mxCell>
        <mxCell id="vnZRfxZpLhFYg0bEfa0_-6" value="&lt;div&gt;coordinates.txt&lt;/div&gt;&lt;div&gt;(coordinates relative to home_location)&lt;br&gt;&lt;/div&gt;" style="shape=document;whiteSpace=wrap;html=1;boundedLbl=1;" vertex="1" parent="WIyWlLk6GJQsqaUBKTNV-1">
          <mxGeometry x="530" y="250" width="120" height="80" as="geometry" />
        </mxCell>
        <mxCell id="vnZRfxZpLhFYg0bEfa0_-11" value="" style="edgeStyle=orthogonalEdgeStyle;rounded=0;orthogonalLoop=1;jettySize=auto;html=1;" edge="1" parent="WIyWlLk6GJQsqaUBKTNV-1" source="vnZRfxZpLhFYg0bEfa0_-8" target="vnZRfxZpLhFYg0bEfa0_-10">
          <mxGeometry relative="1" as="geometry">
            <Array as="points">
              <mxPoint x="290" y="410" />
              <mxPoint x="290" y="410" />
            </Array>
          </mxGeometry>
        </mxCell>
        <mxCell id="vnZRfxZpLhFYg0bEfa0_-8" value="convert target list to GPS coordinates" style="rounded=1;whiteSpace=wrap;html=1;" vertex="1" parent="WIyWlLk6GJQsqaUBKTNV-1">
          <mxGeometry x="220" y="340" width="140" height="60" as="geometry" />
        </mxCell>
        <mxCell id="vnZRfxZpLhFYg0bEfa0_-13" value="" style="edgeStyle=orthogonalEdgeStyle;rounded=0;orthogonalLoop=1;jettySize=auto;html=1;" edge="1" parent="WIyWlLk6GJQsqaUBKTNV-1" source="vnZRfxZpLhFYg0bEfa0_-10" target="vnZRfxZpLhFYg0bEfa0_-12">
          <mxGeometry relative="1" as="geometry" />
        </mxCell>
        <mxCell id="vnZRfxZpLhFYg0bEfa0_-10" value="set next target" style="whiteSpace=wrap;html=1;rounded=1;" vertex="1" parent="WIyWlLk6GJQsqaUBKTNV-1">
          <mxGeometry x="218.76" y="420" width="140" height="60" as="geometry" />
        </mxCell>
        <mxCell id="vnZRfxZpLhFYg0bEfa0_-15" value="" style="edgeStyle=orthogonalEdgeStyle;rounded=0;orthogonalLoop=1;jettySize=auto;html=1;" edge="1" parent="WIyWlLk6GJQsqaUBKTNV-1" source="vnZRfxZpLhFYg0bEfa0_-12" target="vnZRfxZpLhFYg0bEfa0_-14">
          <mxGeometry relative="1" as="geometry" />
        </mxCell>
        <mxCell id="vnZRfxZpLhFYg0bEfa0_-12" value="fly in direction to target for the next second" style="whiteSpace=wrap;html=1;rounded=1;" vertex="1" parent="WIyWlLk6GJQsqaUBKTNV-1">
          <mxGeometry x="219.38" y="500" width="138.75" height="60" as="geometry" />
        </mxCell>
        <mxCell id="vnZRfxZpLhFYg0bEfa0_-31" style="edgeStyle=orthogonalEdgeStyle;rounded=0;orthogonalLoop=1;jettySize=auto;html=1;entryX=0.5;entryY=0;entryDx=0;entryDy=0;" edge="1" parent="WIyWlLk6GJQsqaUBKTNV-1" source="vnZRfxZpLhFYg0bEfa0_-14" target="vnZRfxZpLhFYg0bEfa0_-18">
          <mxGeometry relative="1" as="geometry" />
        </mxCell>
        <mxCell id="vnZRfxZpLhFYg0bEfa0_-14" value="calculate the difference between current location and target" style="whiteSpace=wrap;html=1;rounded=1;" vertex="1" parent="WIyWlLk6GJQsqaUBKTNV-1">
          <mxGeometry x="218.75" y="584.5" width="140" height="60" as="geometry" />
        </mxCell>
        <mxCell id="vnZRfxZpLhFYg0bEfa0_-33" value="y" style="edgeStyle=orthogonalEdgeStyle;rounded=0;orthogonalLoop=1;jettySize=auto;html=1;" edge="1" parent="WIyWlLk6GJQsqaUBKTNV-1" source="vnZRfxZpLhFYg0bEfa0_-18" target="vnZRfxZpLhFYg0bEfa0_-20">
          <mxGeometry x="0.0146" relative="1" as="geometry">
            <mxPoint as="offset" />
          </mxGeometry>
        </mxCell>
        <mxCell id="vnZRfxZpLhFYg0bEfa0_-18" value="&lt;div&gt;desired target&amp;nbsp;&lt;/div&gt;&lt;div&gt;difference achieved&lt;/div&gt;" style="rhombus;whiteSpace=wrap;html=1;" vertex="1" parent="WIyWlLk6GJQsqaUBKTNV-1">
          <mxGeometry x="220" y="670" width="137.5" height="100" as="geometry" />
        </mxCell>
        <mxCell id="vnZRfxZpLhFYg0bEfa0_-23" value="n" style="edgeStyle=orthogonalEdgeStyle;rounded=0;orthogonalLoop=1;jettySize=auto;html=1;entryX=0;entryY=0.5;entryDx=0;entryDy=0;exitX=0;exitY=0.5;exitDx=0;exitDy=0;" edge="1" parent="WIyWlLk6GJQsqaUBKTNV-1" source="vnZRfxZpLhFYg0bEfa0_-20" target="vnZRfxZpLhFYg0bEfa0_-10">
          <mxGeometry relative="1" as="geometry">
            <Array as="points">
              <mxPoint x="130" y="850" />
              <mxPoint x="130" y="450" />
            </Array>
          </mxGeometry>
        </mxCell>
        <mxCell id="vnZRfxZpLhFYg0bEfa0_-25" value="y" style="edgeStyle=orthogonalEdgeStyle;rounded=0;orthogonalLoop=1;jettySize=auto;html=1;" edge="1" parent="WIyWlLk6GJQsqaUBKTNV-1" source="vnZRfxZpLhFYg0bEfa0_-20" target="vnZRfxZpLhFYg0bEfa0_-24">
          <mxGeometry relative="1" as="geometry" />
        </mxCell>
        <mxCell id="vnZRfxZpLhFYg0bEfa0_-20" value="last target" style="rhombus;whiteSpace=wrap;html=1;" vertex="1" parent="WIyWlLk6GJQsqaUBKTNV-1">
          <mxGeometry x="218.75" y="810" width="138.75" height="80" as="geometry" />
        </mxCell>
        <mxCell id="vnZRfxZpLhFYg0bEfa0_-22" value="n" style="edgeStyle=orthogonalEdgeStyle;rounded=0;orthogonalLoop=1;jettySize=auto;html=1;entryX=0;entryY=0.383;entryDx=0;entryDy=0;entryPerimeter=0;exitX=0;exitY=0.5;exitDx=0;exitDy=0;" edge="1" parent="WIyWlLk6GJQsqaUBKTNV-1" source="vnZRfxZpLhFYg0bEfa0_-18" target="vnZRfxZpLhFYg0bEfa0_-12">
          <mxGeometry relative="1" as="geometry">
            <Array as="points">
              <mxPoint x="180" y="720" />
              <mxPoint x="180" y="523" />
            </Array>
          </mxGeometry>
        </mxCell>
        <mxCell id="vnZRfxZpLhFYg0bEfa0_-24" value="mode return to land (RTL) is set" style="rounded=1;whiteSpace=wrap;html=1;" vertex="1" parent="WIyWlLk6GJQsqaUBKTNV-1">
          <mxGeometry x="217.5" y="930" width="140" height="60" as="geometry" />
        </mxCell>
        <mxCell id="vnZRfxZpLhFYg0bEfa0_-35" value="Additionally, after each step the file log.txt is updated with various variables for debugging " style="rounded=0;whiteSpace=wrap;html=1;" vertex="1" parent="WIyWlLk6GJQsqaUBKTNV-1">
          <mxGeometry x="500" y="920" width="150" height="70" as="geometry" />
        </mxCell>
        <mxCell id="vnZRfxZpLhFYg0bEfa0_-36" value="After each step of the flow, the radio interrupt status will be checked. If&lt;br&gt; the status is set to interrupt the flow will be aborted, the &lt;br&gt;safety options enabled, and the mode is set to RTL (Return to Land). " style="rounded=0;whiteSpace=wrap;html=1;" vertex="1" parent="WIyWlLk6GJQsqaUBKTNV-1">
          <mxGeometry x="500" y="780" width="150" height="130" as="geometry" />
        </mxCell>
      </root>
    </mxGraphModel>
  </diagram>
</mxfile>
